nColumns=28
nRows=87
DataType=double
version=3
OpenSimVersion=4.1
endheader
time	ground_force_1_vx	ground_force_1_vy	ground_force_1_vz	ground_force_1_px	ground_force_1_py	ground_force_1_pz	ground_force_1_mx	ground_force_1_my	ground_force_1_mz	ground_force_2_vx	ground_force_2_vy	ground_force_2_vz	ground_force_2_px	ground_force_2_py	ground_force_2_pz	ground_force_2_mx	ground_force_2_my	ground_force_2_mz	ground_force_3_vx	ground_force_3_vy	ground_force_3_vz	ground_force_3_px	ground_force_3_py	ground_force_3_pz	ground_force_3_mx	ground_force_3_my	ground_force_3_mz
1.31	0	0	0	0	0	0	0	0	0	-27.9962	30.335	5.52914	-0.054967	0.006	-0.697692	0	-0.829473	0	0	0	0	0	0	0	0	0	0
1.32	-211.704	318.949	-16.6288	-0.128329	0.006	-0.427685	0	1.62864	0	-233.542	331.006	29.1877	-0.126178	0.006	-0.718276	0	-1.46213	0	0	0	0	0	0	0	0	0	0
1.33	-470.397	842.154	-63.2314	-0.14365	0.006	-0.428762	0	8.45942	0	-365.747	702.999	62.7099	-0.143216	0.006	-0.71695	0	-4.7873	0	0	0	0	0	0	0	0	0	0
1.34	-365.205	1101.88	-145.989	-0.156645	0.006	-0.426622	0	13.9975	0	-182.106	901.109	97.839	-0.16271	0.006	-0.715691	0	-6.08205	0	0	0	0	0	0	0	0	0	0
1.35	-333.449	1346.51	-182.739	-0.166241	0.006	-0.426214	0	13.5068	0	-162.94	1159.45	109.873	-0.174995	0.006	-0.713862	0	-3.40009	0	0	0	0	0	0	0	0	0	0
1.36	-419.244	1586.6	-178.157	-0.180391	0.006	-0.428128	0	5.54215	0	-296.887	1344.69	111.183	-0.180171	0.006	-0.711412	0	3.1423	0	0	0	0	0	0	0	0	0	0
1.37	-367.795	1835.71	-126.841	-0.209828	0.006	-0.433759	0	-5.88031	0	-321.795	1317.29	80.7757	-0.183672	0.006	-0.708259	0	9.73539	0	0	0	0	0	0	0	0	0	0
1.38	-238.827	1913.73	-71.6607	-0.233063	0.006	-0.439507	0	-12.2388	0	-292.596	1158.29	71.397	-0.184043	0.006	-0.707252	0	10.7794	0	0	0	0	0	0	0	0	0	0
1.39	-290.144	1558.78	-70.8085	-0.224674	0.006	-0.441312	0	-10.2209	0	-274.617	968.172	85.3075	-0.179512	0.006	-0.70872	0	6.91216	0	0	0	0	0	0	0	0	0	0
1.4	-389.261	1206.99	-84.5324	-0.198007	0.006	-0.441341	0	-3.89524	0	-265.015	813.368	94.222	-0.172557	0.006	-0.710513	0	2.74098	0	0	0	0	0	0	0	0	0	0
1.41	-374.39	1087.94	-80.1294	-0.187033	0.006	-0.443006	0	-0.732097	0	-259.675	707.294	94.877	-0.167044	0.006	-0.711247	0	0.600404	0	0	0	0	0	0	0	0	0	0
1.42	-316.555	1104.74	-62.3799	-0.19346	0.006	-0.446231	0	-1.83016	0	-252.432	631.33	84.4914	-0.164847	0.006	-0.710439	0	0.907283	0	0	0	0	0	0	0	0	0	0
1.43	-276.664	1129.41	-43.4782	-0.201738	0.006	-0.44939	0	-3.73201	0	-236.371	586.481	70.0239	-0.169533	0.006	-0.708669	0	2.42862	0	0	0	0	0	0	0	0	0	0
1.44	-241.018	1116.76	-37.52	-0.208744	0.006	-0.451348	0	-4.10641	0	-194.247	595.584	59.0299	-0.188835	0.006	-0.705716	0	3.84807	0	0	0	0	0	0	0	0	0	0
1.45	-193.029	1076.08	-46.2791	-0.216062	0.006	-0.45186	0	-3.17198	0	-104.326	691.186	47.7629	-0.22507	0.006	-0.700071	0	4.46146	0	0	0	0	0	0	0	0	0	0
1.46	-152.26	1015.45	-54.1171	-0.222378	0.006	-0.45177	0	-2.21196	0	9.81504	786.519	32.4607	-0.255622	0.006	-0.694653	0	4.08978	0	0	0	0	0	0	0	0	0	0
1.47	-129.571	930.87	-54.1286	-0.225729	0.006	-0.451507	0	-1.53291	0	47.7023	711.321	26.3275	-0.263459	0.006	-0.692997	0	3.14965	0	0	0	0	0	0	0	0	0	0
1.48	-116.559	837.614	-53.053	-0.2265	0.006	-0.450867	0	-0.786944	0	-4.86726	558.774	32.2442	-0.250874	0.006	-0.695143	0	2.14066	0	0	0	0	0	0	0	0	0	0
1.49	-103.811	761.993	-55.8938	-0.226811	0.006	-0.450015	0	-0.005896	0	-50.0255	437.678	34.7981	-0.231005	0.006	-0.698397	0	1.53842	0	0	0	0	0	0	0	0	0	0
1.5	-87.0932	708.158	-58.6511	-0.227458	0.006	-0.449436	0	0.413691	0	-53.5386	365.414	32.3558	-0.217229	0.006	-0.700012	0	1.41528	0	0	0	0	0	0	0	0	0	0
1.51	-70.0405	664.025	-58.2432	-0.22649	0.006	-0.449092	0	0.293269	0	-39.6559	327.601	31.4974	-0.210484	0.006	-0.700601	0	1.30674	0	0	0	0	0	0	0	0	0	0
1.52	-57.2847	623.075	-54.8298	-0.222499	0.006	-0.449033	0	-0.162703	0	-31.9346	306.85	33.3363	-0.20557	0.006	-0.701075	0	1.17554	0	0	0	0	0	0	0	0	0	0
1.53	-49.2329	585.908	-49.7859	-0.215558	0.006	-0.449016	0	-0.673241	0	-29.1704	292.193	34.0931	-0.200577	0.006	-0.701152	0	1.17538	0	0	0	0	0	0	0	0	0	0
1.54	-47.5907	551.121	-45.3293	-0.207161	0.006	-0.448885	0	-0.994377	0	-24.4092	280.271	33.5346	-0.19689	0.006	-0.700863	0	1.2165	0	0	0	0	0	0	0	0	0	0
1.55	-48.8041	516.09	-41.942	-0.198744	0.006	-0.448768	0	-1.09363	0	-17.6028	270.17	32.7133	-0.195333	0.006	-0.700497	0	1.22577	0	0	0	0	0	0	0	0	0	0
1.56	-49.3185	482.271	-39.9293	-0.190325	0.006	-0.448798	0	-1.10708	0	-10.3059	258.883	31.6448	-0.194481	0.006	-0.700418	0	1.22562	0	0	0	0	0	0	0	0	0	0
1.57	-49.3834	451.562	-38.7998	-0.181882	0.006	-0.448973	0	-1.02114	0	-4.01987	244.156	30.2373	-0.192652	0.006	-0.700525	0	1.16462	0	0	0	0	0	0	0	0	0	0
1.58	-47.2722	423.688	-37.3024	-0.173775	0.006	-0.449204	0	-0.929236	0	0.519699	227.754	29.2982	-0.189725	0.006	-0.700807	0	1.00306	0	0	0	0	0	0	0	0	0	0
1.59	-42.4844	399.411	-34.4198	-0.166569	0.006	-0.449648	0	-0.906832	0	3.67955	212.432	28.7859	-0.186236	0.006	-0.701118	0	0.708198	0	0	0	0	0	0	0	0	0	0
1.6	-38.1011	378.279	-30.8849	-0.160555	0.006	-0.450171	0	-0.949141	0	6.14286	197.865	28.2565	-0.182262	0.006	-0.701133	0	0.456139	0	0	0	0	0	0	0	0	0	0
1.61	-35.6732	357.793	-27.1325	-0.155742	0.006	-0.450621	0	-1.0369	0	8.05585	182.815	27.2076	-0.178866	0.006	-0.701012	0	0.348322	0	0	0	0	0	0	0	0	0	0
1.62	-34.1801	335.566	-22.8285	-0.152048	0.006	-0.450984	0	-1.25186	0	8.96833	166.534	25.3428	-0.176613	0.006	-0.700787	0	0.476455	0	0	0	0	0	0	0	0	0	0
1.63	-32.1296	308.395	-17.9703	-0.14953	0.006	-0.451597	0	-1.67173	0	8.80414	148.833	22.9709	-0.175584	0.006	-0.699979	0	0.795737	0	0	0	0	0	0	0	0	0	0
1.64	-29.2411	276.594	-12.3791	-0.150112	0.006	-0.451678	0	-2.364	0	8.46223	132.84	20.7255	-0.178335	0.006	-0.698543	0	1.26445	0	0	0	0	0	0	0	0	0	0
1.65	-24.3018	245.898	-6.82311	-0.158467	0.006	-0.451727	0	-3.06699	0	8.90108	124.325	19.5419	-0.18957	0.006	-0.697046	0	1.78948	0	0	0	0	0	0	0	0	0	0
1.66	-14.1888	227.443	-4.30216	-0.181599	0.006	-0.451845	0	-3.21071	0	12.3588	128.887	19.7574	-0.214264	0.006	-0.695192	0	2.428	0	0	0	0	0	0	0	0	0	0
1.67	3.68504	228.541	-5.91348	-0.219012	0.006	-0.451962	0	-2.697	0	21.7414	151.032	18.4268	-0.250062	0.006	-0.691619	0	3.37791	0	0	0	0	0	0	0	0	0	0
1.68	27.2787	245.799	-10.4209	-0.257887	0.006	-0.452019	0	-2.12982	0	36.5815	185.061	13.3973	-0.282698	0.006	-0.687416	0	4.07068	0	0	0	0	0	0	0	0	0	0
1.69	48.6204	267.7	-14.0497	-0.28806	0.006	-0.452475	0	-1.93148	0	52.3888	213.513	7.68032	-0.305763	0.006	-0.683664	0	4.21059	0	0	0	0	0	0	0	0	0	0
1.7	60.6014	286.709	-13.2296	-0.308205	0.006	-0.453458	0	-1.81951	0	63.4568	224.909	6.7765	-0.319396	0.006	-0.681087	0	4.35187	0	0	0	0	0	0	0	0	0	0
1.71	64.3626	305.57	-8.31472	-0.319798	0.006	-0.454678	0	-1.67862	0	66.0234	222.434	10.0838	-0.325651	0.006	-0.67995	0	4.37289	0	0	0	0	0	0	0	0	0	0
1.72	64.635	327.763	-5.12135	-0.325054	0.006	-0.455929	0	-1.95573	0	63.8691	216.212	11.8588	-0.327737	0.006	-0.679425	0	3.85756	0	0	0	0	0	0	0	0	0	0
1.73	67.1384	355.634	-6.1526	-0.326816	0.006	-0.456617	0	-2.4412	0	63.5084	220.077	10.1606	-0.326998	0.006	-0.679377	0	3.19559	0	0	0	0	0	0	0	0	0	0
1.74	73.7974	395.507	-8.30781	-0.326068	0.006	-0.456544	0	-2.71465	0	64.5674	240.599	9.03048	-0.323685	0.006	-0.679573	0	3.02177	0	0	0	0	0	0	0	0	0	0
1.75	80.368	446.17	-9.33928	-0.323199	0.006	-0.456175	0	-2.90096	0	65.1841	274.261	9.17958	-0.319955	0.006	-0.679956	0	3.14541	0	0	0	0	0	0	0	0	0	0
1.76	83.5592	499.065	-10.2325	-0.319332	0.006	-0.455781	0	-3.2997	0	66.9852	317.246	8.56925	-0.316526	0.006	-0.680677	0	3.2412	0	0	0	0	0	0	0	0	0	0
1.77	84.5241	551.95	-11.9495	-0.314792	0.006	-0.455139	0	-3.69535	0	70.882	362.628	7.89939	-0.312649	0.006	-0.681633	0	3.40058	0	0	0	0	0	0	0	0	0	0
1.78	84.7323	604.511	-14.6069	-0.310308	0.006	-0.454552	0	-4.02256	0	71.9444	401.761	7.32356	-0.307355	0.006	-0.682741	0	3.60427	0	0	0	0	0	0	0	0	0	0
1.79	86.8236	661.234	-17.8491	-0.305106	0.006	-0.453975	0	-4.42114	0	70.1164	438.629	7.07633	-0.299608	0.006	-0.684052	0	3.88833	0	0	0	0	0	0	0	0	0	0
1.8	83.7751	718.224	-21.1505	-0.297829	0.006	-0.453254	0	-4.87115	0	67.2963	488.802	9.15275	-0.288827	0.006	-0.686097	0	4.28647	0	0	0	0	0	0	0	0	0	0
1.81	73.0296	776.506	-24.62	-0.288481	0.006	-0.452401	0	-5.36054	0	56.0101	547.562	14.1552	-0.275832	0.006	-0.688466	0	4.78002	0	0	0	0	0	0	0	0	0	0
1.82	58.4765	837.952	-28.7339	-0.276613	0.006	-0.451399	0	-5.73807	0	41.3494	606.047	18.8277	-0.261917	0.006	-0.690517	0	5.40416	0	0	0	0	0	0	0	0	0	0
1.83	35.6849	888.513	-33.8052	-0.26281	0.006	-0.450452	0	-5.97824	0	25.747	671.235	23.6689	-0.248071	0.006	-0.692531	0	5.99986	0	0	0	0	0	0	0	0	0	0
1.84	11.7871	932.587	-36.3398	-0.249101	0.006	-0.449903	0	-6.18061	0	7.32815	734.792	30.0273	-0.235099	0.006	-0.694253	0	6.50801	0	0	0	0	0	0	0	0	0	0
1.85	-7.36804	980.488	-37.3346	-0.236257	0.006	-0.449697	0	-6.46202	0	-11.0494	795.11	37.6349	-0.223192	0.006	-0.695663	0	7.04498	0	0	0	0	0	0	0	0	0	0
1.86	-28.5339	1025.38	-39.0062	-0.223967	0.006	-0.449586	0	-6.69469	0	-29.5392	850.809	45.2055	-0.212355	0.006	-0.696909	0	7.58085	0	0	0	0	0	0	0	0	0	0
1.87	-49.5711	1064.53	-40.5264	-0.212779	0.006	-0.449494	0	-6.93192	0	-48.1488	894.367	51.6881	-0.202632	0.006	-0.698184	0	7.9984	0	0	0	0	0	0	0	0	0	0
1.88	-66.0111	1098.7	-43.0906	-0.202965	0.006	-0.449362	0	-7.10679	0	-64.0302	928.766	59.0674	-0.194656	0.006	-0.699493	0	8.08483	0	0	0	0	0	0	0	0	0	0
1.89	-81.2603	1124.37	-48.4452	-0.194147	0.006	-0.449002	0	-7.00866	0	-75.088	955.412	67.8993	-0.188347	0.006	-0.700614	0	7.73533	0	0	0	0	0	0	0	0	0	0
1.9	-93.8077	1140.52	-54.0765	-0.186427	0.006	-0.448595	0	-6.75479	0	-81.6398	976.173	76.4712	-0.183634	0.006	-0.701637	0	7.31739	0	0	0	0	0	0	0	0	0	0
1.91	-102.291	1149.69	-58.3604	-0.18004	0.006	-0.44818	0	-6.4537	0	-84.3377	995.872	84.4733	-0.18038	0.006	-0.702742	0	7.0971	0	0	0	0	0	0	0	0	0	0
1.92	-106.766	1154.95	-62.373	-0.174851	0.006	-0.44776	0	-6.02746	0	-83.3487	1014.04	92.0639	-0.177909	0.006	-0.703957	0	6.96088	0	0	0	0	0	0	0	0	0	0
1.93	-108.103	1157.56	-67.2076	-0.170334	0.006	-0.447299	0	-5.57773	0	-81.8211	1027.23	98.1316	-0.175462	0.006	-0.705132	0	6.75963	0	0	0	0	0	0	0	0	0	0
1.94	-108.942	1158.3	-71.6293	-0.166227	0.006	-0.446789	0	-5.18795	0	-83.8839	1033.47	103.364	-0.172566	0.006	-0.706238	0	6.31678	0	0	0	0	0	0	0	0	0	0
1.95	-109.622	1157.02	-73.7565	-0.16257	0.006	-0.446391	0	-4.94723	0	-88.1522	1033.98	108.861	-0.16942	0.006	-0.707395	0	5.68223	0	0	0	0	0	0	0	0	0	0
1.96	-112.106	1152.73	-73.0997	-0.15921	0.006	-0.446144	0	-4.82565	0	-93.7307	1030.7	113.514	-0.166176	0.006	-0.708483	0	5.06332	0	0	0	0	0	0	0	0	0	0
1.97	-117.209	1143.21	-70.6133	-0.15587	0.006	-0.44597	0	-4.59197	0	-101.008	1024.68	114.892	-0.163026	0.006	-0.709277	0	4.72296	0	0	0	0	0	0	0	0	0	0
1.98	-123.719	1125.34	-66.2715	-0.152558	0.006	-0.445943	0	-4.12398	0	-109.103	1015.72	111.378	-0.160103	0.006	-0.709755	0	4.70322	0	0	0	0	0	0	0	0	0	0
1.99	-129.623	1094.82	-59.0929	-0.149265	0.006	-0.445962	0	-3.60199	0	-116.599	998.799	103.013	-0.157278	0.006	-0.709993	0	4.84459	0	0	0	0	0	0	0	0	0	0
2	-130.896	1042.78	-48.0141	-0.145823	0.006	-0.446074	0	-3.16724	0	-121.181	963.316	90.259	-0.154163	0.006	-0.70991	0	4.78663	0	0	0	0	0	0	0	0	0	0
2.01	-122.711	954.237	-32.5061	-0.141738	0.006	-0.44632	0	-2.76327	0	-118.798	896.258	72.6095	-0.150252	0.006	-0.709528	0	4.43453	0	0	0	0	0	0	0	0	0	0
2.02	-99.2791	816.304	-13.6588	-0.136656	0.006	-0.446602	0	-2.37665	0	-105.259	789.289	49.8872	-0.145132	0.006	-0.709028	0	3.99589	0	0	0	0	0	0	0	0	0	0
2.03	-57.6829	632.173	5.49299	-0.131181	0.006	-0.446454	0	-2.28171	0	-77.3393	644.345	23.9506	-0.138918	0.006	-0.708477	0	3.75925	0	0	0	0	0	0	0	0	0	0
2.04	-1.54561	410.536	22.2222	-0.126799	0.006	-0.445917	0	-2.45799	0	-30.3373	462.065	-2.05871	-0.133027	0.006	-0.7081	0	3.75341	0	0	0	0	0	0	0	0	0	0
2.05	44.3647	178.977	27.3185	-0.122602	0.006	-0.444907	0	-1.90766	0	26.0791	243.418	-20.2356	-0.126826	0.006	-0.707145	0	3.2009	0	0	0	0	0	0	0	0	0	0
2.06	32.5308	35.1516	14.7434	-0.11124	0.006	-0.443384	0	-0.691545	0	36.6078	64.8225	-17.0603	-0.107883	0.006	-0.695831	0	2.20472	0	0	0	0	0	0	0	0	0	0
2.07	0	0	0	0	0	0	0	0	0	0	0	0	0	0	0	0	0	0	0	0	0	0	0	0	0	0	0
2.08	0	0	0	0	0	0	0	0	0	0	0	0	0	0	0	0	0	0	0	0	0	0	0	0	0	0	0
2.09	0	0	0	0	0	0	0	0	0	0	0	0	0	0	0	0	0	0	0	0	0	0	0	0	0	0	0
2.1	0	0	0	0	0	0	0	0	0	0	0	0	0	0	0	0	0	0	0	0	0	0	0	0	0	0	0
2.11	0	0	0	0	0	0	0	0	0	0	0	0	0	0	0	0	0	0	0	0	0	0	0	0	0	0	0
2.12	0	0	0	0	0	0	0	0	0	0	0	0	0	0	0	0	0	0	0	0	0	0	0	0	0	0	0
2.13	0	0	0	0	0	0	0	0	0	0	0	0	0	0	0	0	0	0	0	0	0	0	0	0	0	0	0
2.14	0	0	0	0	0	0	0	0	0	0	0	0	0	0	0	0	0	0	0	0	0	0	0	0	0	0	0
2.15	0	0	0	0	0	0	0	0	0	0	0	0	0	0	0	0	0	0	0	0	0	0	0	0	0	0	0
2.16	0	0	0	0	0	0	0	0	0	0	0	0	0	0	0	0	0	0	0	0	0	0	0	0	0	0	0
2.17	0	0	0	0	0	0	0	0	0	0	0	0	0	0	0	0	0	0	0	0	0	0	0	0	0	0	0
